<svg xmlns="http://www.w3.org/2000/svg" xmlns:xlink="http://www.w3.org/1999/xlink" style="isolation:isolate" width="800pt" height="800pt" viewBox="0 0 800 800"><defs><clipPath id="_clipPath_EyzmueAYmK1tRIc0Hz1QWWW9c7ls3l9w"><rect width="800" height="800"/></clipPath></defs><g clip-path="url(#_clipPath_EyzmueAYmK1tRIc0Hz1QWWW9c7ls3l9w)"><g><linearGradient id="_lgradient_0" x1="0" x2="1.089" y1=".5" y2=".5" gradientTransform="matrix(800,0,0,800,0,0)" gradientUnits="userSpaceOnUse"><stop offset="0%" stop-opacity="1" style="stop-color:#af1df5"/><stop offset="30%" stop-opacity="1" style="stop-color:#fe2857"/><stop offset="65.833%" stop-opacity="1" style="stop-color:#fd9450"/><stop offset="91.832%" stop-opacity="1" style="stop-color:#fcf84a"/></linearGradient><circle cx="400" cy="400" r="400" fill="url(#_lgradient_0)" vector-effect="non-scaling-stroke"/><defs><filter id="jZNChQ7EcduXTKsaBNmTCuA4YEw44fTy" width="400%" height="400%" x="-200%" y="-200%" color-interpolation-filters="sRGB" filterUnits="objectBoundingBox"><feOffset xmlns="http://www.w3.org/2000/svg" dx="10" dy="-8" in="SourceGraphic"/><feGaussianBlur xmlns="http://www.w3.org/2000/svg" result="pf_100_offsetBlur" stdDeviation="10.734"/><feComposite xmlns="http://www.w3.org/2000/svg" in="SourceGraphic" in2="pf_100_offsetBlur" operator="out" result="pf_100_inverse"/><feFlood xmlns="http://www.w3.org/2000/svg" flood-color="#000" flood-opacity=".28" result="pf_100_color"/><feComposite xmlns="http://www.w3.org/2000/svg" in="pf_100_color" in2="pf_100_inverse" operator="in" result="pf_100_shadow"/><feComposite xmlns="http://www.w3.org/2000/svg" in="pf_100_shadow" in2="SourceGraphic" operator="over"/></filter></defs><g filter="url(#jZNChQ7EcduXTKsaBNmTCuA4YEw44fTy)"><linearGradient id="_lgradient_1" x1=".146" x2=".854" y1=".854" y2=".146" gradientTransform="matrix(708.333,0,0,708.333,45.833,45.833)" gradientUnits="userSpaceOnUse"><stop offset="0%" stop-opacity="1" style="stop-color:#859398"/><stop offset="100%" stop-opacity="1" style="stop-color:#283048"/></linearGradient><circle cx="400" cy="400" r="354.167" fill="url(#_lgradient_1)" vector-effect="non-scaling-stroke"/></g></g><g><linearGradient id="_lgradient_2" x1=".854" x2=".146" y1=".854" y2=".146" gradientTransform="matrix(531.256,0,0,465.594,134.372,167.692)" gradientUnits="userSpaceOnUse"><stop offset="0%" stop-opacity="1" style="stop-color:#d7dde8"/><stop offset="100%" stop-opacity="1" style="stop-color:#757f9a"/></linearGradient><path fill="url(#_lgradient_2)" d="M 337.283 633.286 L 420.406 520.008 C 476.532 513.369 514.347 497.342 533.684 471.76 C 604.761 473.427 643.549 460.17 649.963 431.903 C 747.391 201.851 364.903 80.881 204.601 240.091 C 163.564 282.505 133.671 376.313 134.385 431.903 C 140.882 463.632 159.63 459.829 197.783 476.655 C 211.552 488.784 212.279 547.549 296.377 551.125 L 271.903 601.121 L 337.283 633.286 Z"/><path fill="#000" fill-rule="evenodd" d="M 271.903 601.121 L 296.377 551.125 C 212.279 547.549 211.552 488.784 197.783 476.655 C 159.63 459.829 140.882 463.632 134.385 431.903 C 133.671 376.313 163.564 282.505 204.601 240.091 C 364.903 80.881 747.391 201.851 649.963 431.903 C 643.549 460.17 604.761 473.427 533.684 471.76 C 514.347 497.342 476.532 513.369 420.406 520.008 L 337.283 633.286 L 271.903 601.121 Z M 154.37 429.69 C 154.38 426.56 154.48 423.43 154.68 420.3 C 154.89 416.77 155.2 413.25 155.6 409.73 C 156.49 401.96 157.71 394.23 159.25 386.56 C 160.92 378.22 162.9 369.94 165.17 361.74 C 167.53 353.22 170.18 344.8 173.13 336.47 C 176.07 328.17 179.31 319.98 182.86 311.92 C 186.26 304.18 190 296.6 194.06 289.19 C 197.77 282.41 201.85 275.83 206.3 269.5 C 208.31 266.64 210.42 263.86 212.63 261.15 C 214.61 258.73 216.68 256.39 218.85 254.13 C 224.5 248.54 230.48 243.28 236.75 238.41 C 243.09 233.48 249.7 228.93 256.55 224.76 C 263.46 220.56 270.58 216.73 277.89 213.29 C 285.29 209.82 292.86 206.71 300.57 203.98 C 308.38 201.22 316.32 198.82 324.35 196.8 C 332.48 194.75 340.7 193.05 348.98 191.71 C 365.77 189.01 382.76 187.67 399.77 187.69 C 415.41 187.7 431.04 188.78 446.54 190.95 C 461.84 193.07 476.98 196.26 491.84 200.48 C 506.25 204.55 520.33 209.68 533.98 215.82 C 540.57 218.79 547.03 222.02 553.36 225.51 C 559.51 228.9 565.51 232.55 571.34 236.45 C 576.99 240.22 582.47 244.26 587.74 248.55 C 592.84 252.69 597.73 257.08 602.38 261.72 C 606.88 266.2 611.12 270.93 615.09 275.88 C 618.95 280.68 622.5 285.71 625.75 290.94 C 628.92 296.06 631.76 301.37 634.24 306.86 C 636.69 312.29 638.77 317.89 640.46 323.61 C 643.9 335.4 645.64 347.62 645.63 359.89 C 645.63 364.92 645.35 369.93 644.81 374.93 C 644.24 380.2 643.39 385.44 642.28 390.62 C 641.09 396.15 639.63 401.62 637.9 407 C 635.83 413.48 633.43 419.84 630.7 426.06 C 630.48 427.93 629.89 429.74 628.97 431.37 C 628.19 432.72 627.23 433.94 626.12 435.02 C 624.5 436.58 622.71 437.94 620.78 439.08 C 618.05 440.7 615.19 442.07 612.21 443.19 C 608.32 444.65 604.33 445.86 600.27 446.8 C 595.24 447.98 590.16 448.9 585.05 449.58 C 578.95 450.38 572.83 450.96 566.69 451.31 C 559.57 451.72 552.44 451.91 545.31 451.9 C 537.88 451.9 530.45 451.72 523.02 451.37 C 520.08 456.99 516.25 462.1 511.68 466.51 C 509.26 468.84 506.69 471 503.98 472.97 C 500.93 475.18 497.75 477.2 494.46 479.02 C 490.76 481.07 486.95 482.92 483.05 484.57 C 478.67 486.42 474.22 488.08 469.69 489.53 C 464.65 491.15 459.55 492.58 454.4 493.82 C 448.7 495.19 442.96 496.37 437.18 497.37 C 430.84 498.47 424.47 499.4 418.08 500.14 C 412.57 500.79 407.56 503.7 404.28 508.18 L 331.07 607.94 L 298.64 591.99 L 314.34 559.92 C 317.31 553.85 317.01 546.67 313.54 540.86 C 310.08 535.06 303.89 531.4 297.14 531.14 C 290.8 530.9 284.48 530.19 278.24 529.04 C 273.3 528.12 268.46 526.78 263.75 525.05 C 259.96 523.65 256.32 521.9 252.85 519.83 C 249.93 518.07 247.18 516.05 244.63 513.79 C 242.32 511.73 240.18 509.48 238.23 507.06 C 236.36 504.73 234.64 502.28 233.09 499.72 C 231.55 497.18 230.12 494.58 228.81 491.91 C 227.5 489.24 226.24 486.54 225.01 483.83 C 224.23 482.09 223.42 480.35 222.61 478.63 C 221.77 476.84 220.87 475.07 219.93 473.34 C 218.89 471.41 217.74 469.56 216.47 467.77 C 214.2 464.56 211.42 461.73 208.24 459.42 C 202.53 456.85 196.75 454.47 190.88 452.28 C 186.74 450.75 182.59 449.27 178.41 447.84 C 176 447.01 173.6 446.17 171.21 445.3 C 169.32 444.62 167.45 443.89 165.6 443.1 C 164.26 442.54 162.96 441.91 161.7 441.21 C 160.89 440.76 160.11 440.25 159.38 439.67 C 158.9 439.29 158.45 438.86 158.04 438.39 C 157.59 437.85 157.2 437.27 156.86 436.66 C 156.3 435.63 155.83 434.55 155.46 433.44 C 155.04 432.21 154.68 430.96 154.37 429.69 Z"/><path fill="#000" d="M 538.06 386.91 L 528.34 384.56 L 533.05 365.12 L 542.77 367.47 L 613.46 384.57 L 585.54 450.8 L 581.66 460.01 L 563.23 452.25 L 567.11 443.03 L 585.89 398.48 L 538.06 386.91 Z"/><path fill="#000" d="M 323.2 342.72 L 313.44 340.52 L 317.84 321.01 L 327.59 323.2 L 477.48 356.95 L 515.32 256.37 C 516.21 254 517.97 252.05 520.24 250.93 C 522.51 249.8 525.13 249.58 527.55 250.31 C 532.98 251.94 538.31 253.92 543.48 256.24 C 548.48 258.47 553.3 261.07 557.93 263.99 C 566.98 269.73 575.1 276.8 582.02 284.98 C 585.51 289.11 588.68 293.5 591.51 298.1 C 594.42 302.82 597 307.75 599.24 312.83 C 601.57 318.13 603.57 323.56 605.22 329.1 C 606.97 334.95 608.4 340.88 609.51 346.88 C 610.13 350.23 608.99 353.67 606.51 356 C 604.02 358.32 600.51 359.22 597.21 358.38 L 547.74 345.8 L 538.05 343.33 L 542.98 323.95 L 552.67 326.42 L 586.09 334.92 C 586.08 334.89 586.07 334.86 586.06 334.84 C 584.64 330.08 582.93 325.42 580.93 320.88 C 579.07 316.64 576.91 312.53 574.48 308.59 C 572.17 304.83 569.58 301.26 566.74 297.89 C 561.14 291.26 554.56 285.53 547.23 280.89 C 543.41 278.48 539.43 276.34 535.3 274.49 C 533.76 273.79 532.19 273.14 530.62 272.52 L 490.07 380.29 L 323.2 342.72 Z"/><path fill="#000" d="M 265.49 526.59 L 258.92 534.12 L 243.85 520.96 L 250.43 513.43 L 361.19 386.6 L 485.75 411.74 C 488.61 412.32 491.08 414.12 492.5 416.66 C 493.92 419.2 494.17 422.24 493.17 424.98 C 491.75 428.87 489.95 432.61 487.8 436.15 C 485.67 439.66 483.19 442.94 480.4 445.95 C 477.57 448.98 474.45 451.73 471.09 454.15 C 467.63 456.65 463.95 458.85 460.1 460.71 C 456.05 462.66 451.87 464.32 447.57 465.65 C 442.98 467.08 438.31 468.23 433.57 469.09 C 428.46 470.02 423.3 470.69 418.11 471.1 C 412.47 471.56 406.82 471.78 401.16 471.76 C 395.49 471.75 389.82 471.57 384.16 471.21 L 353.22 506.77 L 346.65 514.32 L 331.57 501.19 L 338.13 493.65 L 372.35 454.31 C 374.43 451.92 377.54 450.65 380.7 450.91 C 387.52 451.46 394.36 451.75 401.21 451.76 C 406.32 451.77 411.43 451.58 416.52 451.17 C 421.04 450.81 425.54 450.22 430 449.41 C 433.93 448.7 437.81 447.74 441.63 446.56 C 444.97 445.51 448.24 444.22 451.4 442.7 C 454.2 441.35 456.87 439.75 459.39 437.94 C 461.69 436.27 463.82 434.39 465.76 432.32 C 466.82 431.18 467.82 429.97 468.74 428.71 L 368.62 408.5 L 265.49 526.59 Z"/><path fill="#000" d="M 226.52 404.68 L 235.57 408.94 L 227.04 427.03 L 217.99 422.77 L 184.61 407.03 L 210.62 349.62 L 318.23 375.52 L 232.16 482.91 L 225.9 490.71 L 210.3 478.2 L 216.55 470.4 L 282.92 387.59 L 222.01 372.94 L 210.96 397.34 L 226.52 404.68 Z"/><path fill="#000" d="M 481.43 200.61 L 484.79 191.19 L 503.62 197.91 L 500.26 207.33 L 459.04 322.79 L 334.68 292.33 L 358.87 235.2 L 408.94 245.21 L 415.21 226.62 L 418.41 217.15 L 437.36 223.55 L 434.16 233.02 L 422.26 268.27 L 370.93 258.01 L 362.26 278.49 L 446.27 299.07 L 481.43 200.61 Z"/><path fill="#000" fill-rule="evenodd" d="M 295.7 252.58 C 295.39 252.75 295.09 252.92 294.78 253.08 C 290.61 255.39 286.53 257.85 282.56 260.48 C 279.07 262.77 275.67 265.2 272.38 267.77 L 264.5 273.93 L 252.18 258.17 L 260.06 252.01 C 263.78 249.1 267.62 246.36 271.57 243.77 C 275.97 240.86 280.49 238.12 285.12 235.57 C 287.44 234.29 289.79 233.08 292.17 231.92 C 294.46 230.8 296.78 229.77 299.15 228.81 C 301.38 227.91 303.66 227.12 305.97 226.44 C 308.19 225.78 310.47 225.32 312.78 225.05 C 316.31 224.63 319.8 226.13 321.94 228.97 C 324.07 231.8 324.54 235.58 323.16 238.85 L 283.82 332.46 L 191.16 306.58 L 181.53 303.89 L 186.91 284.63 L 196.54 287.32 L 272.22 308.46 L 295.7 252.58 Z M 312.78 225.05 C 316.31 224.63 319.8 226.13 321.94 228.97 C 324.07 231.8 324.54 235.58 323.16 238.85"/></g></g></svg>